<!DOCTYPE svg PUBLIC "-//W3C//DTD SVG 1.1//EN" "http://www.w3.org/Graphics/SVG/1.1/DTD/svg11.dtd">
<svg version="1.1" xmlns="http://www.w3.org/2000/svg" xmlns:xlink="http://www.w3.org/1999/xlink" x="0px" y="0px"
	 viewBox="0 0 512 512" enable-background="new 0 0 512 512" xml:space="preserve">
<g>
	<path class="svg-grey" d="M239.4,337.5l-28.4-5.8c-0.7-4.9-1.7-9.8-3.1-14.4L231,300c1.5-1.1,1.6-3.9,0.3-6.3l-5.7-10.9c-1.2-2.4-3.6-3.9-5.3-3.3
		l-27.1,9c-3.1-4-6.5-7.8-10.1-11.2l11.2-26.1c0.7-1.7-0.6-4.2-2.8-5.6l-10.3-6.6c-2.3-1.4-5-1.6-6.3-0.2l-18.6,21
		c-4.7-2-9.7-3.6-14.8-4.7l-3.3-27.8c-0.2-1.8-2.6-3.3-5.2-3.4l-12.2-0.5c-2.7-0.1-5.1,1.2-5.5,3l-5.6,27.4
		c-5.2,0.7-10.3,1.9-15.1,3.5l-16.8-22.5c-1.1-1.5-3.9-1.6-6.3-0.3l-10.9,5.7c-2.4,1.2-3.9,3.6-3.3,5.3l9,26.9
		c-4,3.1-7.6,6.6-11,10.4l-26.3-11.3c-1.7-0.7-4.1,0.6-5.6,2.8l-6.6,10.4c-1.4,2.3-1.5,5-0.2,6.3l21.6,19.2
		c-1.8,4.5-3.3,9.3-4.3,14.1l-28.8,3.4c-1.8,0.2-3.3,2.5-3.4,5.2l-0.5,12.2c-0.1,2.7,1.2,5.1,3,5.5l28.4,5.8
		c0.7,4.9,1.7,9.8,3.1,14.4l-23.2,17.3c-1.5,1.1-1.6,3.9-0.3,6.2l5.7,10.9c1.2,2.4,3.6,3.9,5.3,3.3l27.1-9c3.1,4,6.4,7.8,10.1,11.3
		l-11.2,26.1c-0.7,1.7,0.6,4.2,2.8,5.6l10.3,6.6c2.3,1.4,5,1.6,6.3,0.2l18.6-21c4.7,2,9.7,3.6,14.8,4.7l3.3,27.8
		c0.2,1.8,2.6,3.3,5.2,3.4l12.2,0.5c2.7,0.1,5.1-1.2,5.5-3l5.6-27.4c5.2-0.7,10.3-1.9,15.2-3.5l16.8,22.5c1.1,1.5,3.9,1.6,6.3,0.3
		L183,448c2.4-1.2,3.9-3.6,3.3-5.3l-9-26.9c4-3.1,7.6-6.6,11-10.4l26.3,11.3c1.7,0.7,4.1-0.6,5.6-2.8l6.6-10.3
		c1.4-2.3,1.5-5.1,0.2-6.3L205.3,378c1.8-4.5,3.3-9.2,4.3-14.1l28.8-3.4c1.8-0.2,3.3-2.6,3.4-5.2l0.5-12.2
		C242.5,340.3,241.2,337.9,239.4,337.5z M118.7,419.2c-41-1.7-72.9-36.8-71.1-78.2c1.7-41.5,36.4-73.7,77.4-72s72.9,36.8,71.1,78.3
		C194.4,388.7,159.7,420.9,118.7,419.2z"/>
	<path class="svg-grey" d="M217,126.7l-25.6-4.6c-0.7-2.9-1.5-5.7-2.6-8.5l18.7-18.1c1.3-1.3,1.1-4-0.5-6.2l-7-10c-1.5-2.2-4.1-3.4-5.7-2.6L170.8,88
		c-2.3-2-4.6-3.8-7.1-5.4l4.5-25.6c0.3-1.8-1.5-3.9-4-4.8l-11.6-4c-2.5-0.9-5.3-0.3-6.1,1.3l-12.3,22.9c-3-0.3-5.9-0.3-8.9-0.2
		L113.8,49c-0.8-1.6-3.5-2.3-6.1-1.5L96,51.1c-2.6,0.8-4.5,2.8-4.2,4.6l3.6,25.8c-2.2,1.4-4.4,2.8-6.5,4.5c-0.3,0.2-0.5,0.4-0.8,0.6
		l-23-12.2c-1.6-0.8-4.2,0.2-5.8,2.4l-7.4,9.8c-1.6,2.1-1.9,4.9-0.7,6.2l18,18.7c-1.2,2.7-2.1,5.6-2.9,8.4l-25.7,3.7
		c-1.8,0.3-3.2,2.6-3.3,5.3l-0.2,12.2c0,2.7,1.3,5.1,3.1,5.4l25.6,4.6c0.7,2.9,1.5,5.7,2.6,8.5l-18.7,18.1c-1.3,1.3-1.1,4,0.5,6.2
		l7,10c1.5,2.2,4.1,3.4,5.7,2.6l23.4-11.3c2.3,2,4.6,3.8,7.1,5.4L89,216.4c-0.3,1.8,1.5,3.9,4.1,4.8l11.6,4c2.5,0.9,5.3,0.3,6.1-1.3
		l12.3-22.9c3,0.3,5.9,0.3,8.9,0.1l11.5,23.4c0.8,1.6,3.5,2.3,6.1,1.5l11.7-3.6c2.6-0.8,4.5-2.8,4.2-4.6l-3.6-25.8
		c2.2-1.4,4.4-2.8,6.5-4.5c0.3-0.2,0.5-0.4,0.8-0.6l23,12.2c1.6,0.9,4.2-0.2,5.8-2.4l7.4-9.8c1.6-2.1,1.9-4.9,0.7-6.2l-18-18.7
		c1.2-2.7,2.1-5.6,2.9-8.4l25.7-3.7c1.8-0.3,3.3-2.6,3.3-5.3l0.2-12.3C220.1,129.5,218.8,127.1,217,126.7z M90.3,166.7
		c-16.6-21.1-12.9-51.7,8.3-68.3c21.1-16.6,51.7-12.9,68.3,8.3c16.6,21.1,12.9,51.7-8.3,68.3C137.5,191.6,106.9,187.9,90.3,166.7z"
		/>
	<path class="svg-orange" d="M508.1,216.5l-23.7-5.1c-0.1-2-0.3-4-0.6-6.1c-0.3-2-0.5-4-0.9-6l21.8-10.7c1.6-0.8,2.3-3.5,1.5-6.1l-3.6-11.7
		c-0.8-2.6-2.8-4.5-4.6-4.2l-24,3.3c-1.7-3.7-3.5-7.3-5.5-10.9l16.8-17.5c1.3-1.3,0.9-4.1-0.7-6.2l-7.4-9.8
		c-1.6-2.2-4.2-3.2-5.8-2.4l-21.5,11.3c-2.8-2.9-5.8-5.7-8.9-8.3l9.8-22.2c0.7-1.7-0.5-4.1-2.8-5.6l-10.3-6.7
		c-2.3-1.5-5-1.6-6.3-0.2l-16.3,18c-3.6-1.8-7.4-3.4-11.2-4.8l1.6-24.2c0.1-1.8-1.9-3.7-4.5-4.3l-11.9-2.8c-2.6-0.6-5.3,0.2-6,1.9
		l-9.1,22.5c-4-0.4-8.1-0.6-12.2-0.6l-6.7-23.3c-0.5-1.7-3.1-2.8-5.7-2.5l-12.2,1.5c-2.7,0.3-4.9,2-4.9,3.8l-0.9,24.3
		c-4,1-7.9,2.2-11.6,3.5l-14.3-19.6c-1.1-1.5-3.9-1.6-6.3-0.4l-10.9,5.6c-2.4,1.2-3.9,3.6-3.3,5.3l7.4,23.1
		c-3.4,2.3-6.6,4.7-9.7,7.3l-20.1-13.5c-1.5-1-4.2-0.2-6,1.8l-8.4,9c-1.8,2-2.5,4.7-1.3,6.1l14.9,19.2c-2.4,3.3-4.6,6.7-6.6,10.2
		l-23.6-5.8c-1.8-0.4-4,1.2-5,3.7l-4.8,11.3c-1,2.5-0.7,5.2,0.8,6.2l20.5,12.9c-1.1,3.9-2,7.8-2.7,11.9l-24.1,2.6
		c-1.8,0.2-3.3,2.5-3.5,5.2l-0.6,12.2c-0.1,2.7,1.1,5.1,2.9,5.5l23.7,5.1c0.1,2,0.3,4,0.6,6.1c0.2,2,0.5,4,0.9,6L218.6,252
		c-1.6,0.8-2.3,3.5-1.5,6.1l3.6,11.7c0.8,2.6,2.8,4.5,4.6,4.2l24-3.3c1.7,3.7,3.5,7.3,5.5,10.9L238,299c-1.3,1.3-0.9,4.1,0.7,6.2
		l7.4,9.8c1.6,2.2,4.2,3.2,5.8,2.4l21.5-11.3c2.8,2.9,5.8,5.7,8.9,8.3l-9.8,22.2c-0.7,1.7,0.5,4.2,2.8,5.6l10.3,6.7
		c2.2,1.5,5,1.6,6.3,0.2l16.3-18c3.6,1.8,7.4,3.4,11.2,4.8l-1.6,24.2c-0.1,1.8,1.9,3.7,4.5,4.3l11.9,2.8c2.6,0.6,5.3-0.2,6-1.9
		l9.1-22.5c4,0.4,8.1,0.6,12.2,0.6l6.7,23.3c0.5,1.8,3.1,2.8,5.7,2.5l12.2-1.5c2.7-0.3,4.9-2,5-3.8l0.9-24.3c4-1,7.9-2.2,11.6-3.5
		l14.3,19.6c1.1,1.5,3.9,1.6,6.2,0.4l10.9-5.6c2.4-1.2,3.9-3.5,3.3-5.3l-7.4-23.1c3.4-2.3,6.6-4.7,9.7-7.3l20.1,13.5
		c1.5,1,4.2,0.2,6-1.8l8.4-9c1.8-2,2.4-4.7,1.3-6.1l-14.9-19.2c2.4-3.3,4.6-6.7,6.6-10.2l23.6,5.8c1.8,0.4,4-1.2,5.1-3.7l4.8-11.3
		c1.1-2.5,0.7-5.2-0.8-6.2L480,254c1.1-3.9,2-7.9,2.7-11.9l24.1-2.6c1.8-0.2,3.3-2.5,3.5-5.2l0.7-12.2
		C511.2,219.4,509.9,216.9,508.1,216.5z M375.6,334.4c-63,7.7-120.3-37.1-128-100.1c-7.7-63,37.1-120.3,100.1-128
		c63-7.7,120.3,37.1,128,100.1C483.4,269.4,438.6,326.7,375.6,334.4z"/>
	<path class="svg-orange" d="M351.4,136.7c-46.2,5.7-79,47.7-73.4,93.9c5.7,46.2,47.7,79,93.9,73.4c46.2-5.7,79-47.7,73.4-93.9
		C439.6,163.9,397.6,131,351.4,136.7z M367.6,268.8c-26.8,3.3-51.1-15.8-54.4-42.5c-3.3-26.8,15.8-51.1,42.5-54.4
		c26.8-3.3,51.1,15.8,54.4,42.5C413.4,241.1,394.3,265.5,367.6,268.8z"/>
</g>
</svg>
