<!DOCTYPE svg PUBLIC "-//W3C//DTD SVG 1.1//EN" "http://www.w3.org/Graphics/SVG/1.1/DTD/svg11.dtd">
<svg version="1.1" xmlns="http://www.w3.org/2000/svg" xmlns:xlink="http://www.w3.org/1999/xlink" x="0px" y="0px"
	 viewBox="0 0 512 512" enable-background="new 0 0 512 512" xml:space="preserve">
<g>
	<g class="svg-grey">
		<path d="M230.7,238.3V2.1C101.8,14.9,1.2,123.7,1.2,255.9c0,36.5,7.7,71.1,21.5,102.5L230.7,238.3z"/>
		<path d="M256.2,282.4L47.7,402.8C93.9,468.3,170.1,511,256.2,511s162.4-42.7,208.5-108.2L256.2,282.4z"/>
	</g>
	<g class="svg-orange">
		<path d="M406,49.5L281.7,173.8v64.5l9.3,5.4L447.5,87.2C435.1,73.1,421.2,60.5,406,49.5z"/>
		<path d="M501.2,184.6c-5.7-19.6-13.7-38.2-23.6-55.5L336.7,270l50.2,29L501.2,184.6z"/>
		<path d="M360.4,23C336,12.1,309.5,4.9,281.7,2.1v99.6L360.4,23z"/>
		<path d="M432.6,325.4l57.3,33.1c13.8-31.4,21.5-66,21.5-102.5c0-3-0.1-6.1-0.2-9.1L432.6,325.4z"/>
	</g>
</g>
</svg>
