<!DOCTYPE svg PUBLIC "-//W3C//DTD SVG 1.1//EN" "http://www.w3.org/Graphics/SVG/1.1/DTD/svg11.dtd">
<svg version="1.1" xmlns="http://www.w3.org/2000/svg" xmlns:xlink="http://www.w3.org/1999/xlink" x="0px" y="0px"
	 viewBox="0 0 512 512" enable-background="new 0 0 512 512" xml:space="preserve">
<g>
	<path class="svg-orange" d="M357,266.8c-23.3,34.6-59.7,56.9-100.7,56.9c-41,0-77.5-22.4-100.7-56.9C94.3,289.4,53.1,332,53.1,380.8
		c0,22.3,1.8,42.5,5.1,60.8h396.2c3.3-18.3,5.1-38.5,5.1-60.8C459.4,332,418.1,289.4,357,266.8z"/>
	<g>
		<g>
			<path class="svg-orange" d="M346.8,178c0,60.3-40.5,109.2-90.6,109.2c-50,0-90.6-48.9-90.6-109.2c0-60.3,40.5-109.2,90.6-109.2
				C306.3,68.8,346.8,117.7,346.8,178z"/>
			<g class="svg-grey">
				<path d="M389.4,171.4c0,5.2-0.3,10.4-0.8,15.5c1.5,0.2,3.1,0.3,4.6,0.3c25.1,0,45.5-24.6,45.5-54.9s-20.4-54.9-45.5-54.9
					c-11.1,0-21.3,4.8-29.2,12.8C379.9,112.4,389.4,140.7,389.4,171.4z"/>
				<path d="M451,184.5c-13.7,20.3-35.1,33.4-59.1,33.4c-3.1,0-6.1-0.3-9.1-0.7c-1.2,4.9-2.5,9.7-4.1,14.4
					c34,13.7,62.1,32.9,82.7,55.5h46.7c1.9-10.7,3-22.6,3-35.7C511.1,222.8,486.9,197.8,451,184.5z"/>
				<path d="M119.3,187.2c1.6,0,3.1-0.1,4.6-0.3c-0.5-5.1-0.9-10.3-0.9-15.5c0-30.8,9.5-59,25.4-81.1c-7.9-8-18.1-12.8-29.2-12.8
					c-25.1,0-45.5,24.6-45.5,54.9S94.2,187.2,119.3,187.2z"/>
				<path d="M133.8,231.6c-1.6-4.7-2.9-9.5-4.1-14.3c-3,0.4-6,0.7-9.1,0.7c-24.1,0-45.5-13.1-59.1-33.4
					c-35.9,13.3-60.1,38.3-60.1,67c0,13.1,1,25,3,35.7h46.7C71.7,264.5,99.8,245.3,133.8,231.6z"/>
			</g>
		</g>
	</g>
</g>
</svg>
