<svg xmlns="http://www.w3.org/2000/svg" xmlns:xlink="http://www.w3.org/1999/xlink" version="1.1" x="0px" y="0px" viewBox="0 0 162 46" enable-background="new 0 0 162 46" xml:space="preserve"><style>.style0{fill: #D18316;}.style1{fill: #566C11;}</style><polygon points="26.6,44.9 39.5,22.4 26.6,0 13.6,22.4" class="style0"/><polygon points="39.5,22.4 26.6,44.9 13.6,22.4 0,46 53.1,46" class="style1"/><path d="M65 16.7c-0.7-0.8-1.6-1.2-2.7-1.2c-1.2 0-2.1 0.4-2.8 1.2c-0.7 0.8-1.1 1.9-1.1 3.2c0 1.3 0.4 2.3 1.1 3.2 c0.7 0.8 1.6 1.2 2.8 1.2c1.1 0 2-0.4 2.7-1.2c0.7-0.8 1.1-1.9 1.1-3.1C66.1 18.6 65.7 17.5 65 16.7 M55.4 32V13h3.2v1.5 c1.2-1.2 2.7-1.9 4.2-1.9c1.9 0 3.4 0.7 4.6 2.1c1.2 1.4 1.9 3.1 1.9 5.2c0 2.1-0.6 3.8-1.8 5.1c-1.2 1.4-2.8 2-4.6 2 c-1.6 0-3-0.6-4.3-1.9V32H55.4z" class="style1"/><path d="M75.8 26.7h-3.2V13h3.2V26.7z M72.8 5.9c0.4-0.4 0.9-0.6 1.4-0.6c0.6 0 1.1 0.2 1.5 0.6 c0.4 0.4 0.6 0.9 0.6 1.4c0 0.6-0.2 1.1-0.6 1.5c-0.4 0.4-0.9 0.6-1.4 0.6c-0.6 0-1.1-0.2-1.5-0.6c-0.4-0.4-0.6-0.9-0.6-1.5 C72.1 6.8 72.3 6.3 72.8 5.9" class="style1"/><path d="M83 13v1.3c1.1-1.1 2.3-1.6 3.7-1.6c1.6 0 2.8 0.5 3.7 1.5c0.8 0.9 1.1 2.2 1.1 4.2v8.4h-3.2V19 c0-1.3-0.2-2.3-0.6-2.8c-0.4-0.5-1-0.8-2-0.8c-1 0-1.8 0.3-2.2 1c-0.4 0.7-0.6 1.9-0.6 3.6v6.6h-3.2V13H83z" class="style1"/><path d="M98.7 13v1.3c1.1-1.1 2.3-1.6 3.7-1.6c1.6 0 2.8 0.5 3.7 1.5c0.8 0.9 1.2 2.2 1.2 4.2v8.4h-3.2V19 c0-1.3-0.2-2.3-0.6-2.8c-0.4-0.5-1-0.8-2-0.8c-1 0-1.8 0.3-2.2 1c-0.4 0.7-0.6 1.9-0.6 3.6v6.6h-3.2V13H98.7z" class="style1"/><path d="M115 23c0.7 0.8 1.6 1.2 2.7 1.2c1.2 0 2.1-0.4 2.8-1.2c0.7-0.8 1.1-1.9 1.1-3.2c0-1.3-0.4-2.3-1.1-3.2 c-0.7-0.8-1.7-1.2-2.8-1.2c-1.1 0-2 0.4-2.7 1.2c-0.7 0.8-1.1 1.9-1.1 3.1C113.9 21.1 114.3 22.2 115 23 M124.6 13v13.7h-3.2v-1.4 c-1.3 1.2-2.7 1.8-4.2 1.8c-1.9 0-3.5-0.7-4.7-2c-1.2-1.4-1.8-3.1-1.8-5.2c0-2.1 0.6-3.8 1.8-5.1c1.2-1.4 2.8-2.1 4.6-2.1 c1.6 0 3 0.7 4.3 2V13H124.6z" class="style1"/><path d="M139.2 17.8c-0.7-0.9-1.4-1.5-1.9-1.8c-0.6-0.3-1.2-0.5-2-0.5c-1.2 0-2.2 0.4-3 1.3 c-0.8 0.8-1.2 1.9-1.2 3.1c0 1.3 0.4 2.3 1.1 3.2c0.8 0.8 1.7 1.2 2.9 1.2c0.8 0 1.4-0.2 2-0.5c0.6-0.3 1.2-0.9 2-1.9v4.2 c-1.3 0.7-2.6 1-3.8 1c-2.1 0-3.9-0.7-5.3-2c-1.4-1.4-2.1-3.1-2.1-5.1c0-2 0.7-3.8 2.2-5.2c1.4-1.4 3.2-2.1 5.3-2.1 c1.3 0 2.6 0.3 3.8 1V17.8z" class="style1"/><rect x="142.7" y="3" width="3.2" height="23.7" class="style1"/><path d="M155.4 15.5c-0.4 0-0.7 0.1-1.1 0.2c-0.3 0.1-0.6 0.3-0.9 0.5c-0.3 0.2-0.5 0.5-0.7 0.8 c-0.2 0.3-0.3 0.7-0.4 1.1h6.3C158.2 16.3 157.1 15.5 155.4 15.5 M152.1 20.6c0.1 1.1 0.4 2 1.1 2.7c0.6 0.7 1.5 1 2.5 1 c0.8 0 1.4-0.2 2-0.6c0.5-0.4 1.1-1.1 1.7-2.1l2.7 1.5c-0.4 0.7-0.8 1.3-1.3 1.8c-0.5 0.5-1 0.9-1.5 1.2c-0.5 0.3-1.1 0.6-1.7 0.7 c-0.6 0.2-1.3 0.2-2 0.2c-2 0-3.7-0.7-4.9-2c-1.2-1.3-1.9-3.1-1.9-5.3c0-2.2 0.6-3.9 1.8-5.2c1.2-1.3 2.8-2 4.8-2 c2 0 3.6 0.6 4.8 1.9c1.2 1.3 1.7 3 1.7 5.3l0 0.7H152.1z" class="style1"/><path d="M60.9 38.2c0-1-0.7-2.1-1.8-2.1c-1.1 0-1.8 1.1-1.8 2.1c0 1 0.7 2.1 1.8 2.1C60.2 40.3 60.9 39.2 60.9 38.2 M57.5 35.1c0.5-0.6 1.3-0.9 2.1-0.9c2.1 0 3.5 2 3.5 4c0 2.1-1.3 4.1-3.5 4.1c-0.8 0-1.6-0.3-2-1h0V46h-2.2V34.4h2.2V35.1z" class="style1"/><rect x="64.5" y="30.3" width="2.2" height="11.7" class="style1"/><path d="M73.9 38.2c0-1-0.7-2.1-1.8-2.1c-1.1 0-1.8 1.1-1.8 2.1c0 1 0.7 2.1 1.8 2.1C73.2 40.3 73.9 39.2 73.9 38.2 M75.8 42h-2.1v-0.7h0c-0.5 0.6-1.3 0.9-2.1 0.9c-2.2 0-3.5-2-3.5-4.1c0-2 1.3-4 3.5-4c0.8 0 1.6 0.3 2.1 1v-0.7h2.1V42z" class="style1"/><path d="M79.8 35.1L79.8 35.1c0.5-0.7 1.2-0.9 2-0.9c2 0 2.6 1.4 2.6 3.2V42h-2.2v-4c0-0.9 0.1-2.1-1.2-2.1 c-1.3 0-1.3 1.4-1.3 2.3V42h-2.2v-7.6h2.2V35.1z" class="style1"/><path d="M94.1 38.2c0-1-0.7-2.1-1.8-2.1c-1.1 0-1.8 1.1-1.8 2.1c0 1 0.7 2.1 1.8 2.1C93.5 40.3 94.1 39.2 94.1 38.2 M93.9 41.2L93.9 41.2c-0.5 0.6-1.3 1-2.1 1c-2.2 0-3.5-2-3.5-4.1c0-2 1.3-4 3.5-4c0.8 0 1.6 0.3 2.1 0.9h0v-4.8h2.2V42h-2.2V41.2z" class="style1"/><path d="M102.7 37.2c-0.1-0.8-0.6-1.5-1.4-1.5c-0.9 0-1.3 0.7-1.5 1.5H102.7z M99.8 38.5c0 1 0.4 2 1.5 2 c0.7 0 1.2-0.4 1.5-1l2 0.3c-0.5 1.5-1.9 2.4-3.4 2.4c-2.4 0-3.8-1.7-3.8-4c0-2.3 1.2-4.1 3.7-4.1c2.5 0 3.6 1.8 3.6 4.1v0.3H99.8z" class="style1"/><path d="M109.9 36.2c-0.3-0.3-0.7-0.5-1.1-0.5c-0.4 0-0.7 0.3-0.7 0.7c0 0.6 0.8 0.7 1.6 1c0.8 0.3 1.6 0.9 1.6 2.2 c0 1.7-1.4 2.7-3 2.7c-1 0-2-0.5-2.7-1.3l1-1.3c0.4 0.5 1 0.9 1.6 0.9c0.5 0 0.9-0.3 0.9-0.8c0-0.7-0.8-0.8-1.5-1.1 c-0.8-0.3-1.5-0.8-1.5-2c0-1.4 1-2.5 2.4-2.5c0.8 0 1.8 0.2 2.4 0.8L109.9 36.2z" class="style1"/><path d="M114.8 42h-2.2v-7.6h2.2V42z M115 31.2c0 0.7-0.6 1.3-1.3 1.3c-0.7 0-1.3-0.6-1.3-1.3c0-0.7 0.6-1.3 1.3-1.3 C114.4 29.9 115 30.5 115 31.2" class="style1"/><path d="M121.9 38.2c0-1-0.7-2.1-1.8-2.1c-1.1 0-1.8 1.1-1.8 2.1s0.7 2.1 1.8 2.1C121.3 40.3 121.9 39.2 121.9 38.2 M123.9 41.5c0 2.5-0.8 4.5-3.7 4.5c-1.9 0-3.7-1.1-3.8-3.2h2.3c0.1 0.8 0.7 1.3 1.5 1.3c1.5 0 1.6-1.3 1.6-2.5v-0.5h0 c-0.5 0.6-1.3 1-2.1 1c-2.2 0-3.4-1.9-3.4-4c0-2.1 1.3-4.1 3.5-4.1c0.8 0 1.5 0.4 2 1h0v-0.7h2.2V41.5z" class="style1"/><path d="M127.9 35.1L127.9 35.1c0.5-0.7 1.2-0.9 2-0.9c2 0 2.6 1.4 2.6 3.2V42h-2.2v-4c0-0.9 0-2.1-1.2-2.1 c-1.3 0-1.3 1.4-1.3 2.3V42h-2.2v-7.6h2.2V35.1z" class="style1"/><polygon points="136.7,39.8 134.5,44.4 133.1,44.2 134.8,39.5" class="style1"/><polygon points="143.2,40 146.4,40 146.4,42 140.9,42 140.9,30.3 143.2,30.3" class="style1"/><polygon points="149.7,40 152.9,40 152.9,42 147.4,42 147.4,30.3 149.7,30.3" class="style1"/><path d="M161.5 33.4c-0.6-0.8-1.6-1.2-2.6-1.2c-2.2 0-3.4 2-3.4 4c0 2 1.3 3.9 3.4 3.9c1 0 1.9-0.5 2.6-1.2v2.7 c-0.8 0.4-1.7 0.7-2.6 0.7c-3.3 0-5.7-2.8-5.7-6c0-3.3 2.3-6.2 5.7-6.2c0.9 0 1.8 0.2 2.6 0.7V33.4z" class="style1"/></svg>
